:FULLY-SPECIFIED
:FORCE-ALL-JOINTS-BE-3DOF
:DEGREES
485
root 10.8785 17.2849 31.6207 4.36631 4.13945 4.44828
lfemur 10.5788 2.581 -29.3412
ltibia 2.05776 0 0
lfoot -14.7955 4.45142 0
ltoes 2.676 0 0
rfemur -40.2419 9.07795 10.2573
rtibia 29.7555 0 0
rfoot -22.3006 -6.98462 0
rtoes -16.274 0 0
lowerback -6.58888 -4.63273 -4.90098
upperback 1.01094 -5.84952 1.48038
thorax 5.39617 -3.06473 3.60067
lowerneck -23.0201 -2.37867 -9.55047
upperneck 24.4428 -2.78136 9.94153
head 12.1583 -0.831452 4.93109
lclavicle 3.26172e-14 -3.06275e-15 0
lhumerus -8.55287 -22.2821 83.828
lradius 32.975 0 0
lwrist 7.73927 0 0
lhand -18.3083 -25.9538 0
lfingers 7.12502 0 0
lthumb 7.97292 3.87828 0
rclavicle 3.26172e-14 -3.06275e-15 0
rhumerus -47.8522 8.77686 -85.6387
rradius 38.0562 0 0
rwrist -19.932 0 0
rhand -31.6183 -23.3533 0
rfingers 7.12502 0 0
rthumb -4.88019 -53.2777 0
486
root 10.8734 17.2717 31.7635 4.38909 4.17641 4.66957
lfemur 11.7445 2.51149 -29.503
ltibia 0.867548 0 0
lfoot -14.6286 4.55456 0
ltoes 2.24172 0 0
rfemur -40.7121 9.86367 9.55558
rtibia 29.2498 0 0
rfoot -22.9866 -7.0293 0
rtoes -16.8877 0 0
lowerback -6.57353 -4.67898 -5.08664
upperback 0.947211 -5.89351 1.4095
thorax 5.3372 -3.08829 3.62792
lowerneck -22.8592 -2.37844 -9.5713
upperneck 24.4132 -2.79492 9.9687
head 12.1173 -0.83928 4.93978
lclavicle 4.32496e-14 -7.3624e-15 0
lhumerus -8.94316 -22.5393 84.0362
lradius 33.3249 0 0
lwrist 7.62718 0 0
lhand -18.3219 -26.1119 0
lfingers 7.12502 0 0
lthumb 7.95971 3.72007 0
rclavicle 4.32496e-14 -7.3624e-15 0
rhumerus -48.0992 8.62051 -85.5894
rradius 37.7697 0 0
rwrist -19.8524 0 0
rhand -31.3455 -23.376 0
rfingers 7.12502 0 0
rthumb -4.61677 -53.3061 0
487
root 10.8684 17.2584 31.9063 4.42251 4.23293 4.84871
lfemur 12.734 2.42356 -29.6038
ltibia 2.8625e-14 0 0
lfoot -14.5736 4.62157 0
ltoes 1.97923 0 0
rfemur -41.1324 10.5816 8.94555
rtibia 28.7835 0 0
rfoot -23.7293 -7.11235 0
rtoes -16.4619 0 0
lowerback -6.53922 -4.73521 -5.23995
upperback 0.866424 -5.95593 1.34709
thorax 5.24925 -3.11898 3.64664
lowerneck -22.7455 -2.37613 -9.59661
upperneck 24.4371 -2.81651 10.0396
head 12.1086 -0.844895 4.96853
lclavicle 4.93483e-14 -8.74653e-15 0
lhumerus -9.38194 -22.7914 84.2462
lradius 33.6506 0 0
lwrist 7.50649 0 0
lhand -18.175 -26.2233 0
lfingers 7.12502 0 0
lthumb 8.1014 3.60143 0
rclavicle 4.93483e-14 -8.74653e-15 0
rhumerus -48.3732 8.46943 -85.559
rradius 37.504 0 0
rwrist -19.7468 0 0
rhand -31.0738 -23.3489 0
rfingers 7.12502 0 0
rthumb -4.35441 -53.2841 0
488
root 10.8519 17.2362 32.0565 4.46236 4.32896 4.98647
lfemur 13.5144 2.29765 -29.6412
ltibia -0.467705 0 0
lfoot -14.6666 4.64967 0
ltoes 1.98383 0 0
rfemur -41.5171 11.308 8.37026
rtibia 28.3741 0 0
rfoot -24.6811 -7.21433 0
rtoes -14.2949 0 0
lowerback -6.44523 -4.80792 -5.35609
upperback 0.739457 -6.0484 1.28608
thorax 5.07866 -3.16055 3.65047
lowerneck -22.6644 -2.3706 -9.63276
upperneck 24.5524 -2.85302 10.1761
head 12.1456 -0.849821 5.02765
lclavicle 5.06164e-14 -6.28381e-15 0
lhumerus -9.9324 -23.0484 84.4669
lradius 33.9646 0 0
lwrist 7.35834 0 0
lhand -17.7453 -26.2739 0
lfingers 7.12502 0 0
lthumb 8.51594 3.53097 0
rclavicle 5.06164e-14 -6.28381e-15 0
rhumerus -48.7316 8.33058 -85.5716
rradius 37.2722 0 0
rwrist -19.6175 0 0
rhand -30.7538 -23.3191 0
rfingers 7.12502 0 0
rthumb -4.04536 -53.2596 0
489
root 10.8353 17.214 32.2066 4.5037 4.46667 5.09988
lfemur 14.126 2.12938 -29.637
ltibia -0.598663 0 0
lfoot -14.8875 4.65171 0
ltoes 2.21157 0 0
rfemur -41.8837 12.087 7.77847
rtibia 28.0443 0 0
rfoot -25.8788 -7.33625 0
rtoes -10.5899 0 0
lowerback -6.28004 -4.89564 -5.44697
upperback 0.558792 -6.16798 1.2202
thorax 4.81133 -3.21147 3.64097
lowerneck -22.5874 -2.36437 -9.68293
upperneck 24.7503 -2.90672 10.3707
head 12.2193 -0.856886 5.11357
lclavicle 4.87713e-14 -8.83487e-16 0
lhumerus -10.6202 -23.3195 84.7112
lradius 34.2762 0 0
lwrist 7.17094 0 0
lhand -17.043 -26.2792 0
lfingers 7.12502 0 0
lthumb 9.1935 3.49352 0
rclavicle 4.87713e-14 -8.83487e-16 0
rhumerus -49.1861 8.20033 -85.6271
rradius 37.0609 0 0
rwrist -19.472 0 0
rhand -30.3515 -23.3484 0
rfingers 7.12502 0 0
rthumb -3.65684 -53.295 0
490
root 10.8188 17.1918 32.3568 4.55056 4.62167 5.19224
lfemur 14.6199 1.94212 -29.5994
ltibia -0.505122 0 0
lfoot -15.1857 4.63438 0
ltoes 2.5323 0 0
rfemur -42.2186 12.8345 7.22851
rtibia 27.7779 0 0
rfoot -27.1413 -7.50261 0
rtoes -6.2749 0 0
lowerback -6.0917 -4.9899 -5.52159
upperback 0.358953 -6.29942 1.15671
thorax 4.51079 -3.2667 3.62649
lowerneck -22.5258 -2.3595 -9.73992
upperneck 24.9811 -2.96958 10.5943
head 12.3108 -0.864893 5.21248
lclavicle 4.46132e-14 6.06294e-15 0
lhumerus -11.3728 -23.5943 84.9713
lradius 34.5721 0 0
lwrist 6.96489 0 0
lhand -16.2234 -26.2609 0
lfingers 7.12502 0 0
lthumb 9.98423 3.47453 0
rclavicle 4.46132e-14 6.06294e-15 0
rhumerus -49.6677 8.06904 -85.6952
rradius 36.8503 0 0
rwrist -19.3094 0 0
rhand -29.9202 -23.3931 0
rfingers 7.12502 0 0
rthumb -3.24034 -53.3461 0
